<svg width="29" height="29" viewBox="0 0 29 29" fill="none" xmlns="http://www.w3.org/2000/svg">
<path d="M4.82666 21.72C4.82666 20.4399 5.33518 19.2122 6.24036 18.307C7.14553 17.4018 8.37322 16.8933 9.65333 16.8933H19.3067C20.5868 16.8933 21.8145 17.4018 22.7196 18.307C23.6248 19.2122 24.1333 20.4399 24.1333 21.72C24.1333 22.36 23.8791 22.9739 23.4265 23.4265C22.9739 23.879 22.36 24.1333 21.72 24.1333H7.23999C6.59994 24.1333 5.9861 23.879 5.53351 23.4265C5.08092 22.9739 4.82666 22.36 4.82666 21.72Z" stroke="#5D5D5D" stroke-opacity="0.8" stroke-width="1.5" stroke-linejoin="round"/>
<path d="M14.48 12.0667C16.4793 12.0667 18.1 10.4459 18.1 8.44666C18.1 6.44739 16.4793 4.82666 14.48 4.82666C12.4807 4.82666 10.86 6.44739 10.86 8.44666C10.86 10.4459 12.4807 12.0667 14.48 12.0667Z" stroke="#5D5D5D" stroke-opacity="0.8" stroke-width="1.5"/>
</svg>
