<svg width="104" height="104" viewBox="0 0 104 104" fill="none" xmlns="http://www.w3.org/2000/svg">
<path d="M58 78C58 79.1867 57.6481 80.3467 56.9888 81.3334C56.3295 82.3201 55.3925 83.0891 54.2961 83.5433C53.1998 83.9974 51.9934 84.1162 50.8295 83.8847C49.6656 83.6532 48.5965 83.0818 47.7574 82.2426C46.9183 81.4035 46.3468 80.3344 46.1153 79.1705C45.8838 78.0067 46.0026 76.8003 46.4567 75.7039C46.9109 74.6075 47.6799 73.6705 48.6666 73.0112C49.6533 72.3519 50.8133 72 52 72C53.5913 72 55.1174 72.6321 56.2427 73.7574C57.3679 74.8826 58 76.4087 58 78ZM52 24C40.97 24 32 32.075 32 42V44C32 45.0609 32.4215 46.0783 33.1716 46.8284C33.9217 47.5786 34.9392 48 36 48C37.0609 48 38.0783 47.5786 38.8284 46.8284C39.5786 46.0783 40 45.0609 40 44V42C40 36.5 45.385 32 52 32C58.615 32 64 36.5 64 42C64 47.5 58.615 52 52 52C50.9392 52 49.9217 52.4214 49.1716 53.1716C48.4215 53.9217 48 54.9391 48 56V60C48 61.0609 48.4215 62.0783 49.1716 62.8284C49.9217 63.5786 50.9392 64 52 64C53.0609 64 54.0783 63.5786 54.8285 62.8284C55.5786 62.0783 56 61.0609 56 60V59.64C65.12 57.965 72 50.69 72 42C72 32.075 63.03 24 52 24ZM104 52C104 62.2846 100.95 72.3383 95.2364 80.8896C89.5226 89.441 81.4013 96.106 71.8996 100.042C62.3978 103.977 51.9423 105.007 41.8553 103.001C31.7683 100.994 22.5028 96.0419 15.2305 88.7696C7.95814 81.4972 3.00562 72.2317 0.999189 62.1447C-1.00724 52.0577 0.0225308 41.6022 3.95829 32.1005C7.89404 22.5987 14.559 14.4774 23.1104 8.76358C31.6617 3.04975 41.7154 0 52 0C65.7868 0.0145591 79.0048 5.49779 88.7535 15.2465C98.5022 24.9953 103.985 38.2132 104 52ZM96 52C96 43.2976 93.4195 34.7907 88.5847 27.5549C83.7499 20.3191 76.878 14.6796 68.8381 11.3493C60.7981 8.01904 51.9512 7.1477 43.416 8.84545C34.8809 10.5432 27.0408 14.7338 20.8873 20.8873C14.7338 27.0408 10.5432 34.8809 8.84547 43.416C7.14772 51.9512 8.01907 60.7981 11.3493 68.8381C14.6796 76.878 20.3192 83.7499 27.5549 88.5847C34.7907 93.4194 43.2976 96 52 96C63.6655 95.9868 74.8494 91.3468 83.0981 83.0981C91.3468 74.8493 95.9868 63.6655 96 52Z" fill="white"/>
</svg>
