<svg width="21" height="24" viewBox="0 0 21 24" fill="none" xmlns="http://www.w3.org/2000/svg">
<path d="M5 11.7021C5 12.0364 5.12783 12.3215 5.39331 12.5772L13.0629 20.0796C13.2694 20.296 13.5447 20.4041 13.8594 20.4041C14.4985 20.4041 15 19.9125 15 19.2635C15 18.9489 14.8722 18.6637 14.6559 18.4474L7.74336 11.7021L14.6559 4.95674C14.8722 4.73058 15 4.44543 15 4.13078C15 3.49164 14.4985 3 13.8594 3C13.5447 3 13.2694 3.10816 13.0629 3.32448L5.39331 10.8269C5.12783 11.0826 5.00983 11.3677 5 11.7021Z" fill="#FF7F50"/>
</svg>
